<svg width="126" height="94" viewBox="0 0 126 94" fill="none" xmlns="http://www.w3.org/2000/svg">
<path d="M101.106 6.65686V21.2619H109.719V92.7685H125.011V6.65686H101.106Z" fill="#F29F05"/>
<path d="M80.2841 30.566C78.685 25.534 76.0844 20.8762 72.6384 16.8721C69.4897 13.2514 65.5556 10.3952 61.1353 8.52047C56.6042 6.63425 51.7342 5.69465 46.8254 5.7596C41.8036 5.68552 36.807 6.48427 32.0594 8.12015C27.638 9.71655 23.6845 12.3876 20.5562 15.892C17.1209 19.8443 14.5833 24.4924 13.1179 29.5169C11.2518 35.9413 10.3708 42.6108 10.5048 49.2986C10.4095 55.6462 11.3433 61.9674 13.27 68.0173C14.8824 73.0769 17.4808 77.7683 20.9157 81.8216C24.0567 85.4677 27.9914 88.3481 32.4189 90.2423C36.9936 92.1284 41.9041 93.0676 46.8531 93.0032C51.7599 93.0471 56.6257 92.1083 61.1629 90.2423C65.5761 88.419 69.5114 85.6091 72.6661 82.0287C76.1264 78.0294 78.7286 73.3641 80.3118 68.321C82.2469 62.164 83.1805 55.737 83.077 49.2848C83.1631 42.9356 82.22 36.6144 80.2841 30.566ZM65.0756 64.2349C63.9 68.298 61.5882 71.9422 58.4116 74.74C55.096 77.3659 50.9427 78.709 46.7148 78.5224C42.5106 78.691 38.3851 77.349 35.0873 74.74C31.8818 71.9896 29.5631 68.3536 28.4232 64.2901C26.9485 59.431 26.2259 54.3755 26.2802 49.2986C26.2004 44.2139 26.9093 39.1476 28.3817 34.2794C29.5442 30.2688 31.8615 26.6877 35.0458 23.9814C38.3394 21.3761 42.4789 20.0738 46.6734 20.3232C50.8796 20.0604 55.0377 21.3363 58.3701 23.9123C61.5134 26.6035 63.8248 30.1322 65.0342 34.0862C66.5442 38.876 67.2724 43.8773 67.191 48.8982C67.2789 54.0896 66.5607 59.2632 65.0618 64.2349H65.0756Z" fill="#F29F05"/>
<path d="M99.2394 89.0828V17.5762H90.6121V0.941895H116.549V43.4869H114.531V2.97114H92.6445V15.5607H101.258V87.0535H114.531V79.0056H116.549V89.0828H99.2394Z" fill="white"/>
<path d="M37.3415 89.3175C32.2515 89.3708 27.204 88.3892 22.5063 86.4324C17.9382 84.4766 13.8765 81.5071 10.6298 77.7495C7.1107 73.6066 4.44233 68.8128 2.7767 63.6414C0.835689 57.481 -0.098015 51.0485 0.0115159 44.5914C-0.113588 37.806 0.781221 31.0402 2.66609 24.5199C4.18805 19.3541 6.80502 14.5755 10.3395 10.5084C13.5845 6.89272 17.6736 4.133 22.2436 2.47429C27.0943 0.781491 32.2033 -0.0546688 37.3415 0.00330913C42.3946 -0.0399847 47.404 0.941545 52.066 2.88842C56.6202 4.82992 60.6756 7.77469 63.9287 11.5023C67.4525 15.619 70.1177 20.3966 71.768 25.5552L72.0998 26.5077L70.178 27.1565L69.8461 26.1902C68.2877 21.2878 65.7581 16.7483 62.4078 12.8414C59.3465 9.34614 55.5383 6.58172 51.2641 4.75201C46.8557 2.91299 42.119 1.98778 37.3415 2.03255C32.4347 1.97361 27.5551 2.7677 22.921 4.37929C18.6688 5.92378 14.8679 8.49964 11.8603 11.8751C8.52354 15.724 6.05298 20.2432 4.61554 25.1272C2.78589 31.4499 1.91899 38.0113 2.04392 44.5914C1.9406 50.8293 2.84633 57.0429 4.72615 62.9926C6.3012 67.9156 8.83361 72.48 12.1783 76.4243C15.2197 79.9488 19.0262 82.7343 23.3082 84.5688C27.7553 86.4282 32.5341 87.3675 37.3553 87.3297C42.126 87.3738 46.8582 86.473 51.278 84.6793C55.5437 82.8991 59.3492 80.1757 62.4078 76.7141C65.7778 72.8209 68.3097 68.2771 69.8461 63.3653L70.1641 62.4128L72.0998 63.0478L71.768 64.0141C70.1448 69.1843 67.4767 73.9672 63.9287 78.067C60.6579 81.7473 56.5986 84.6444 52.0522 86.5429C47.382 88.4345 42.381 89.3778 37.3415 89.3175Z" fill="white"/>
<path d="M38.1704 73.2767C33.7291 73.4421 29.3749 72.0174 25.893 69.2596C22.5425 66.3806 20.1103 62.5845 18.8971 58.3404C17.4208 53.3732 16.703 48.2122 16.7679 43.0313C16.691 37.8497 17.409 32.6869 18.8971 27.7223C20.1361 23.5288 22.5661 19.784 25.893 16.9411C29.2432 14.2791 33.4352 12.8987 37.7142 13.0483H38.6128C42.905 12.8747 47.1193 14.23 50.5031 16.8721C53.7663 19.6981 56.1628 23.3877 57.4161 27.5152C58.964 32.4257 59.711 37.5528 59.6282 42.7C59.7018 47.9961 58.9556 53.2718 57.4161 58.3404C56.2033 62.5763 53.8051 66.3787 50.5031 69.301C47.0033 72.061 42.626 73.4721 38.1704 73.2767ZM37.7003 15.0775C33.8969 14.9326 30.1664 16.1464 27.1788 18.501C24.158 21.0973 21.954 24.5108 20.8327 28.3297C19.4002 33.0966 18.71 38.0551 18.7865 43.0313C18.7221 48.0069 19.412 52.9635 20.8327 57.733C21.9439 61.5799 24.1482 65.0227 27.1788 67.6445C30.3246 70.1051 34.2471 71.3632 38.2395 71.1922C42.2342 71.3793 46.1621 70.1194 49.3003 67.6445C52.3356 64.9734 54.5424 61.4912 55.6602 57.6088C57.0904 52.7524 57.7665 47.7058 57.6649 42.6448C57.7443 37.7322 57.0348 32.8387 55.5634 28.1502C54.3983 24.3984 52.199 21.0497 49.2173 18.4872C46.1934 16.1578 42.4425 14.9698 38.6267 15.1327L37.7003 15.0775Z" fill="white"/>
</svg>
