<svg width="156" height="94" viewBox="0 0 156 94" fill="none" xmlns="http://www.w3.org/2000/svg">
<path d="M128.556 78.4466C131.167 75.3402 133.765 72.2659 136.349 69.2236C139.433 65.5924 142.319 61.7978 144.995 57.8563C147.505 54.207 149.59 50.2824 151.208 46.1592C152.719 42.2911 153.492 38.1747 153.49 34.0222C153.519 29.2157 152.312 24.4826 149.985 20.277C147.679 16.0646 144.291 12.5438 140.171 10.078C135.694 7.4317 130.566 6.09358 125.367 6.21563C119.386 6.03252 113.458 7.39601 108.158 10.1742C103.716 12.5503 99.9904 16.0718 97.3681 20.3732C94.9382 24.4153 93.6596 29.0448 93.6706 33.761C93.7204 36.2958 94.1181 38.8118 94.8527 41.2384C95.6724 44.143 96.8938 46.9188 98.4814 49.4855C99.8623 51.8672 101.831 53.8548 104.199 55.2585L113.422 46.7365C111.834 45.0565 110.576 43.0937 109.711 40.9497C108.759 38.5306 108.292 35.9479 108.337 33.3486C108.341 31.8542 108.65 30.3763 109.244 29.0052C109.878 27.5268 110.757 26.1655 111.842 24.9778C113.081 23.6647 114.598 22.6456 116.281 21.9951C118.342 21.1675 120.55 20.77 122.769 20.8268C124.735 20.8088 126.69 21.1153 128.556 21.734C130.302 22.33 131.913 23.2642 133.298 24.483C134.709 25.7352 135.818 27.2907 136.542 29.0327C137.361 31.0522 137.759 33.2179 137.71 35.3967C137.614 39.9381 136.436 44.391 134.274 48.3859C131.652 53.3768 128.49 58.0645 124.845 62.3647C120.859 67.1023 116.359 72.0322 111.347 77.1546L95.7461 93.0028H155.51V78.4466H128.556Z" fill="#F29F05"/>
<path d="M79.8154 30.4345C78.2257 25.424 75.6403 20.7863 72.2144 16.7993C69.084 13.1942 65.1729 10.3501 60.7783 8.48347C56.2737 6.60534 51.4321 5.66976 46.5521 5.73444C41.5595 5.66067 36.5922 6.456 31.8722 8.08486C27.4766 9.67442 23.5462 12.334 20.4362 15.8234C17.0209 19.7588 14.4981 24.387 13.0413 29.3899C11.1875 35.7824 10.3116 42.4185 10.4434 49.073C10.3477 55.398 11.276 61.6968 13.1925 67.7253C14.7955 72.7632 17.3787 77.4345 20.7936 81.4705C23.9162 85.1009 27.828 87.9689 32.2296 89.855C36.7776 91.733 41.6595 92.6682 46.5796 92.6041C51.4577 92.6478 56.2952 91.713 60.8058 89.855C65.1932 88.0396 69.1056 85.2417 72.2418 81.6766C75.682 77.6945 78.269 73.0491 79.8429 68.0277C81.7677 61.8926 82.6959 55.4884 82.592 49.0593C82.6766 42.742 81.739 36.4525 79.8154 30.4345ZM64.6957 63.9591C63.5269 68.0048 61.2287 71.6334 58.0705 74.4192C54.7714 77.0283 50.6445 78.365 46.4421 78.1854C42.2633 78.3471 38.1639 77.0116 34.8824 74.4192C31.6957 71.6805 29.3905 68.0602 28.2572 64.0141C26.7902 59.1713 26.0718 54.1328 26.1267 49.073C26.0473 44.0147 26.752 38.9745 28.216 34.132C29.3717 30.1386 31.6755 26.5729 34.8412 23.8781C38.1155 21.284 42.2309 19.9873 46.4009 20.2356C50.5833 19.9676 54.7193 21.2387 58.0293 23.8094C61.1571 26.4865 63.4556 30.0009 64.6545 33.9396C66.1557 38.7089 66.8797 43.6888 66.7987 48.6882C66.8861 53.8572 66.1721 59.0087 64.682 63.9591H64.6957Z" fill="#F29F05"/>
<path d="M83.9253 89.3465L101.203 71.7664C106.192 66.6807 110.715 61.7049 114.66 56.9628C118.242 52.7286 121.357 48.1202 123.951 43.2177C126.039 39.3615 127.184 35.0657 127.291 30.682C127.328 28.6489 126.954 26.6293 126.192 24.7441C125.518 23.1639 124.499 21.7549 123.209 20.6206C121.92 19.5015 120.426 18.6426 118.811 18.0914C117.037 17.5074 115.18 17.2195 113.312 17.2392C111.226 17.1844 109.149 17.5538 107.21 18.3251C105.653 18.9341 104.247 19.8718 103.086 21.0741C102.128 22.1708 101.344 23.4087 100.763 24.7441C100.224 25.9944 99.943 27.341 99.9384 28.7027C99.8882 31.1699 100.327 33.6225 101.23 35.919C102.041 37.9566 103.23 39.8222 104.735 41.417L105.436 42.1593L94.9077 51.7809L94.2754 51.4098C91.765 49.9123 89.6749 47.8032 88.2 45.2794C86.5996 42.6684 85.3604 39.8525 84.5163 36.9086C83.7299 34.3781 83.2997 31.7505 83.238 29.1013C83.2267 24.2045 84.5578 19.3983 87.0867 15.2049C89.7955 10.7474 93.6496 7.09741 98.2478 4.63489C103.697 1.76154 109.794 0.341329 115.952 0.511333C121.312 0.402831 126.599 1.78263 131.222 4.49744C135.489 7.07751 138.995 10.7441 141.38 15.1225C143.795 19.4833 145.049 24.3914 145.023 29.3762C145.017 33.6594 144.22 37.9046 142.672 41.8981L142.315 42.8328L140.432 42.1043L140.803 41.1696C142.254 37.4068 142.999 33.409 143.002 29.3762C143.026 24.7344 141.862 20.1635 139.621 16.0984C137.4 12.0324 134.142 8.6272 130.178 6.22933C125.868 3.70816 120.943 2.43291 115.952 2.54562C110.139 2.37088 104.379 3.69134 99.2237 6.38053C94.9437 8.67381 91.3521 12.0661 88.8186 16.2083C86.4719 20.0945 85.2315 24.5479 85.2311 29.0876C85.2938 31.5458 85.6962 33.9834 86.4269 36.3313C87.215 39.103 88.3806 41.7531 89.8907 44.2073C90.9987 46.0964 92.4871 47.7346 94.2617 49.0181L94.619 49.2655L102.55 42.0081L102.22 41.6095C101.026 40.1116 100.054 38.4497 99.3336 36.6749C98.3559 34.1289 97.8889 31.4154 97.9591 28.689C97.9711 27.0554 98.3172 25.4416 98.9763 23.9469C99.6523 22.3727 100.581 20.9195 101.725 19.6446C103.057 18.2091 104.685 17.0791 106.495 16.3321C108.679 15.4607 111.016 15.0354 113.367 15.0812C115.441 15.0658 117.502 15.3908 119.47 16.0434C121.341 16.6778 123.068 17.6725 124.556 18.9711C126.082 20.3193 127.281 21.9975 128.061 23.8782C128.934 26.0236 129.36 28.3249 129.312 30.6408C129.207 35.3432 127.992 39.9542 125.766 44.0974C123.082 49.1479 119.856 53.8906 116.144 58.2411C112.185 63.0245 107.622 68.0552 102.577 73.1822L88.7361 87.3122H145.091V74.7766H116.969L118.343 73.1272C121.202 69.7321 123.759 66.7219 126.151 63.9042L127.25 62.5297L128.803 63.8217L127.69 65.1962C125.917 67.2855 124.047 69.4847 122.054 71.8626L121.285 72.7698H147.084V89.3465H83.9253Z" fill="white"/>
<path d="M37.1232 88.9342C32.0633 88.9846 27.0458 88.0073 22.3746 86.0615C17.8332 84.114 13.7953 81.1572 10.5675 77.4158C7.06895 73.2906 4.41615 68.5174 2.76024 63.3682C0.830566 57.2342 -0.097687 50.8292 0.0112046 44.3998C-0.113169 37.6435 0.776417 30.9067 2.65028 24.4143C4.16336 19.2706 6.76505 14.5126 10.2789 10.4629C13.505 6.86269 17.5702 4.1148 22.1135 2.4632C26.9359 0.777655 32.0151 -0.0549207 37.1232 0.00280875C42.1469 -0.0402996 47.1271 0.937024 51.7619 2.87555C56.2894 4.80873 60.3211 7.74088 63.5552 11.4526C67.0634 15.5481 69.7136 20.3064 71.3488 25.4452L71.6787 26.3936L69.7681 27.0396L69.4382 26.0774C67.8888 21.1961 65.374 16.6761 62.0433 12.7858C58.9998 9.3056 55.2138 6.55302 50.9646 4.73116C46.582 2.90002 41.8729 1.97877 37.1232 2.02335C32.2451 1.96466 27.394 2.75536 22.787 4.36004C18.5596 5.89791 14.7808 8.46272 11.7908 11.8237C8.47354 15.6561 6.01741 20.1559 4.58836 25.0191C2.76938 31.3146 1.90754 37.8479 2.03175 44.3998C1.92903 50.6109 2.82947 56.7979 4.69832 62.7221C6.26716 67.6228 8.78448 72.167 12.107 76.0962C15.1306 79.6057 18.9149 82.3792 23.1719 84.2059C27.5926 86.0588 32.3438 86.994 37.137 86.9549C41.8793 86.992 46.5825 86.0953 50.9784 84.3158C55.2171 82.5396 58.9996 79.8284 62.0433 76.3849C65.3936 72.5083 67.9108 67.984 69.4382 63.0933L69.7543 62.1448L71.6787 62.7771L71.3488 63.7255C69.7379 68.8789 67.0852 73.6463 63.5552 77.7319C60.3036 81.3964 56.2679 84.2811 51.7481 86.1714C47.1033 88.0487 42.1328 88.9876 37.1232 88.9342Z" fill="white"/>
<path d="M37.9476 72.9622C33.5322 73.1269 29.2034 71.7083 25.7418 68.9623C22.4109 66.0957 19.9929 62.3158 18.7868 58.0899C17.3191 53.144 16.6055 48.0051 16.67 42.8465C16.5935 37.6871 17.3074 32.5464 18.7868 27.603C20.0149 23.4259 22.4314 19.6961 25.7418 16.8681C29.0761 14.2143 33.249 12.8396 37.5077 12.9919H38.3737C42.6453 12.817 46.84 14.1665 50.2083 16.7993C53.4525 19.6133 55.835 23.2871 57.0809 27.3969C58.6198 32.2863 59.3624 37.3914 59.2801 42.5166C59.3533 47.79 58.6114 53.043 57.0809 58.0899C55.8752 62.3076 53.491 66.0937 50.2083 69.0036C46.7289 71.7517 42.3771 73.1567 37.9476 72.9622ZM37.4802 15.0124C33.699 14.8681 29.9903 16.0768 27.0201 18.4213C24.0139 21.0038 21.8222 24.4036 20.7111 28.2078C19.2869 32.9543 18.6008 37.8915 18.6768 42.8465C18.6128 47.8007 19.2987 52.7361 20.7111 57.4851C21.8158 61.3155 24.0072 64.7436 27.0201 67.3541C30.1476 69.8041 34.0471 71.0568 38.0163 70.8867C41.9876 71.0729 45.8926 69.8184 49.0125 67.3541C52.0271 64.692 54.2204 61.2256 55.3353 57.3614C56.7571 52.5258 57.4292 47.5009 57.3283 42.4616C57.4072 37.5701 56.7018 32.6975 55.239 28.0291C54.0807 24.2934 51.8943 20.9591 48.93 18.4075C45.9237 16.0881 42.1947 14.9052 38.4012 15.0674L37.4802 15.0124Z" fill="white"/>
</svg>
