<svg width="146" height="94" viewBox="0 0 146 94" fill="none" xmlns="http://www.w3.org/2000/svg">
<path d="M143.496 50.5404C142.209 47.4174 140.198 44.6449 137.629 42.4516C135.206 40.4584 132.381 39.0127 129.347 38.2139C127.897 37.8208 126.421 37.5303 124.93 37.3443L143.371 5.78955H97.4472V20.4074H121.493L104.363 48.8426L104.749 49.2429C106.204 48.7908 107.683 48.4221 109.18 48.1386C111.208 47.7861 113.265 47.6289 115.323 47.6693C117.298 47.5564 119.276 47.8456 121.136 48.5195C122.996 49.1933 124.7 50.2377 126.145 51.5895C127.489 53.014 128.53 54.6968 129.203 56.5358C129.877 58.3747 130.17 60.3315 130.065 62.2872C130.154 65.3325 129.383 68.3414 127.843 70.9696C126.473 73.2793 124.515 75.1846 122.169 76.491C119.871 77.7581 117.285 78.414 114.66 78.3959C111.519 78.362 108.441 77.5104 105.729 75.925C103.271 74.6599 101.078 72.9356 99.2693 70.8454L91.567 83.3651C94.5614 86.4232 98.1959 88.7802 102.209 90.2669C106.289 91.9443 110.65 92.8297 115.06 92.8757C120.338 92.9254 125.548 91.6938 130.244 89.2868C134.842 86.9504 138.721 83.4107 141.467 79.0446C144.388 74.2608 145.86 68.7325 145.704 63.1292C145.829 58.8266 145.078 54.5436 143.496 50.5404Z" fill="#F29F05"/>
<path d="M80.1653 30.5668C78.5687 25.535 75.9724 20.8776 72.5319 16.8737C69.3883 13.2533 65.4606 10.3972 61.0474 8.52262C56.5237 6.63652 51.6616 5.69698 46.7608 5.76192C41.7471 5.68784 36.7587 6.48655 32.0187 8.12232C27.6045 9.71862 23.6574 12.3895 20.5342 15.8937C17.1044 19.8458 14.5709 24.4936 13.1079 29.5177C11.2449 35.9417 10.3653 42.6108 10.4991 49.2981C10.4039 55.6453 11.3362 61.9662 13.2598 68.0156C14.8696 73.0749 17.4638 77.766 20.8931 81.8191C24.029 85.465 27.9574 88.3452 32.3776 90.2392C36.9449 92.1252 41.8475 93.0644 46.7884 92.9999C51.6873 93.0439 56.5452 92.1051 61.075 90.2392C65.4811 88.4161 69.41 85.6063 72.5595 82.0262C76.0143 78.0271 78.6123 73.3621 80.1929 68.3193C82.1248 62.1627 83.0569 55.7361 82.9536 49.2843C83.0396 42.9356 82.098 36.6148 80.1653 30.5668ZM64.9814 64.2335C63.8076 68.2964 61.4997 71.9403 58.3282 74.7379C55.018 77.3637 50.8714 78.7067 46.6504 78.5201C42.453 78.6887 38.3342 77.3468 35.0417 74.7379C31.8414 71.9877 29.5265 68.352 28.3884 64.2887C26.9161 59.4299 26.1946 54.3748 26.2489 49.2981C26.1692 44.2138 26.8769 39.1477 28.347 34.2799C29.5076 30.2696 31.8212 26.6887 35.0003 23.9825C38.2885 21.3775 42.4213 20.0752 46.609 20.3246C50.8084 20.0618 54.9597 21.3376 58.2867 23.9135C61.4249 26.6045 63.7326 30.133 64.94 34.0867C66.4476 38.8763 67.1747 43.8772 67.0934 48.8978C67.1811 54.0888 66.464 59.2621 64.9676 64.2335H64.9814Z" fill="#F29F05"/>
<path d="M105.591 89.259C101.054 89.2104 96.5665 88.3017 92.3676 86.5811C88.2047 85.0341 84.4342 82.588 81.3248 79.4171L80.8002 78.8512L89.7449 64.4541L90.6559 65.5722C92.3646 67.5552 94.4352 69.1948 96.7571 70.4034C99.3357 71.8566 102.245 72.6219 105.205 72.6258C107.654 72.6424 110.068 72.0343 112.217 70.859C114.402 69.646 116.23 67.8799 117.518 65.7379C118.96 63.272 119.678 60.4492 119.588 57.5938C119.697 55.7717 119.433 53.9464 118.811 52.2301C118.189 50.5139 117.223 48.943 115.972 47.6139C113.542 45.1707 110.229 43.9974 105.854 43.9974C103.866 43.9589 101.879 44.1022 99.9181 44.4253C98.4585 44.7071 97.016 45.0712 95.5976 45.5158L95.004 45.6952L93.6237 44.3149L110.188 16.7079H86.9842V0.088501H135.669L117.159 31.8365L117.918 31.9745C118.705 32.1264 119.464 32.3058 120.209 32.5129C123.36 33.3631 126.293 34.8787 128.809 36.9576L129.596 37.5926L128.312 39.1524L127.525 38.5174C125.225 36.6422 122.552 35.2777 119.685 34.5144C118.281 34.1292 116.851 33.8478 115.406 33.6724L113.887 33.4791L132.149 2.10381H88.9995V14.6926H113.846L96.7294 43.0587L98.027 42.7965C98.5377 42.6722 99.0484 42.5756 99.5592 42.4652C101.647 42.112 103.764 41.9548 105.881 41.9959C107.976 41.8921 110.069 42.2087 112.039 42.9271C114.01 43.6454 115.816 44.7509 117.352 46.1783C118.774 47.7049 119.874 49.5027 120.586 51.4641C121.297 53.4255 121.606 55.5104 121.493 57.5938C121.58 60.8247 120.757 64.015 119.119 66.8007C117.69 69.2272 115.654 71.2396 113.211 72.6396C110.761 73.9791 108.011 74.6727 105.219 74.6549C101.915 74.6461 98.6694 73.7907 95.7908 72.1703C93.8614 71.1353 92.0711 69.8598 90.4627 68.3743L89.9657 67.905L83.3953 78.5889L83.7266 78.8926C86.4562 81.4173 89.6481 83.3906 93.1267 84.7038C97.0713 86.3239 101.286 87.1856 105.55 87.2437C110.672 87.2841 115.728 86.091 120.292 83.7652C124.736 81.507 128.488 78.0928 131.155 73.8819L131.707 73.0261L133.419 74.1166L132.867 74.9724C130.019 79.4878 126.01 83.1542 121.258 85.5873C116.407 88.0539 111.033 89.3135 105.591 89.259Z" fill="white"/>
<path d="M37.2916 89.3143C32.21 89.3676 27.1707 88.386 22.4805 86.4294C17.9198 84.4736 13.8648 81.5043 10.6233 77.747C7.10992 73.6043 4.44587 68.8109 2.78294 63.6398C0.845076 57.4798 -0.0871139 51.0477 0.0222395 44.591C-0.102661 37.806 0.790697 31.0407 2.67251 24.5207C4.19797 19.3577 6.81003 14.5807 10.3334 10.5102C13.5748 6.89645 17.6567 4.13722 22.2182 2.47657C27.0611 0.783882 32.1618 -0.0522239 37.2916 0.00575035C42.3366 -0.0375408 47.3379 0.943927 51.9924 2.89068C56.5391 4.83205 60.5879 7.77663 63.8357 11.5041C67.3588 15.617 70.0202 20.3954 71.6623 25.556L71.9936 26.5084L70.0749 27.1572L69.7436 26.191C68.1877 21.2889 65.6623 16.7497 62.3174 12.843C59.261 9.34799 55.459 6.58374 51.1917 4.75415C46.7902 2.91636 42.0613 1.99125 37.2916 2.03486C32.3928 1.97593 27.5212 2.76997 22.8946 4.38145C18.6493 5.92585 14.8545 8.50154 11.8518 11.8767C8.52046 15.7255 6.05391 20.2443 4.6188 25.1281C2.79211 31.4503 1.92662 38.0113 2.05135 44.591C1.9482 50.8285 2.85245 57.0417 4.72923 62.991C6.30472 67.9125 8.83272 72.476 12.1693 76.4218C15.2058 79.9462 19.0061 82.7315 23.2811 84.5659C27.7211 86.4252 32.4921 87.3643 37.3054 87.3266C42.0694 87.366 46.7938 86.4605 51.2056 84.6625C55.4622 82.8787 59.2608 80.156 62.3174 76.6979C65.6819 72.8049 68.2097 68.2614 69.7436 63.3499L70.0611 62.3975L71.9936 63.0325L71.6623 63.9849C70.0446 69.1601 67.3806 73.9477 63.8357 78.0506C60.5703 81.7307 56.5175 84.6276 51.9785 86.526C47.3153 88.4169 42.3234 89.3646 37.2916 89.3143Z" fill="white"/>
<path d="M38.1199 73.2748C33.6858 73.4402 29.3386 72.0156 25.8624 69.258C22.5173 66.3792 20.0891 62.5833 18.8778 58.3394C17.4039 53.3726 16.6872 48.2119 16.7521 43.0314C16.6753 37.8501 17.3922 32.6876 18.8778 27.7233C20.1148 23.5301 22.5409 19.7855 25.8624 16.9428C29.2071 14.281 33.3923 12.9006 37.6643 13.0502H38.5616C42.8468 12.8767 47.0542 14.2318 50.4326 16.8738C53.6905 19.6997 56.0831 23.389 57.3343 27.5163C58.8798 32.4264 59.6255 37.5532 59.5429 42.7001C59.6163 47.9958 58.8713 53.2711 57.3343 58.3394C56.1235 62.5751 53.7292 66.3772 50.4326 69.2994C46.9384 72.0592 42.5682 73.4702 38.1199 73.2748ZM37.6505 15.0793C33.8533 14.9344 30.1288 16.1482 27.1461 18.5026C24.1302 21.0987 21.9297 24.512 20.8103 28.3307C19.3801 33.0973 18.6911 38.0554 18.7674 43.0314C18.7031 48.0066 19.3919 52.9629 20.8103 57.7321C21.9196 61.5788 24.1204 65.0214 27.1461 67.643C30.2868 70.1034 34.2029 71.3614 38.1889 71.1905C42.177 71.3775 46.0986 70.1177 49.2317 67.643C52.2621 64.9721 54.4653 61.4901 55.5813 57.6079C57.0091 52.7518 57.6841 47.7055 57.5828 42.6449C57.662 37.7326 56.9536 32.8394 55.4846 28.1512C54.3268 24.3971 52.1303 21.0472 49.1488 18.4888C46.125 16.1586 42.3756 14.9707 38.5616 15.1345L37.6505 15.0793Z" fill="white"/>
</svg>
