<svg width="57" height="30" viewBox="0 0 57 30" fill="none" xmlns="http://www.w3.org/2000/svg">
<g clip-path="url(#clip0)">
<path d="M54.3393 20.8047C49.1778 24.6915 42.9567 26.8893 36.5158 27.1015C31.5882 27.3202 26.4366 26.4178 22.2624 23.6215C20.953 22.7479 19.8046 21.6513 18.8687 20.3809C21.3778 20.5696 23.9006 20.3386 26.3348 19.6972C31.5135 18.2683 37.8189 14.6858 38.552 8.75825C39.2307 3.24777 34.4796 0.164358 29.518 0.0207843C19.0045 -0.29371 12.699 10.2555 16.1809 18.617C8.14473 17.2359 0.895861 11.7801 1.09948 2.73501C1.09948 2.05132 0.0881692 2.11969 0.0406578 2.7897C-0.678799 12.8398 7.93432 18.9246 16.9683 20.1894C17.9101 21.777 19.1587 23.158 20.6402 24.2505C31.0316 32.0787 47.552 28.7765 56.9185 20.8321L54.3393 20.8047ZM18.0882 7.52078C21.1289 2.5299 28.3981 -0.29371 33.8551 2.47521C37.4931 4.32799 37.88 8.53947 35.8913 11.787C34.2081 14.5217 31.2827 16.2583 28.4253 17.4479C25.0907 18.7498 21.4927 19.219 17.9388 18.8152C16.9541 17.0928 16.4482 15.1349 16.4745 13.1474C16.5008 11.1599 17.0582 9.21621 18.0882 7.52078Z" fill="#E7E7E7"/>
<path d="M52.5 29.3436C52.3371 29.87 53.138 30.2871 53.4027 29.7606C54.8402 26.6694 56.0339 23.469 56.9728 20.1891C57.0092 20.0677 57.0134 19.9388 56.9848 19.8153C56.9563 19.6918 56.8961 19.578 56.8102 19.4852C56.7243 19.3925 56.6158 19.3241 56.4954 19.2869C56.3751 19.2496 56.2472 19.2448 56.1244 19.273L55.5136 19.4302H55.4185C52.6145 20.1408 49.7082 20.3491 46.8326 20.0455C45.9027 19.9566 45.8823 21.365 46.7783 21.4881C49.0859 21.8109 51.43 21.7602 53.7217 21.3377C54.9638 21.1121 54.9434 21.6112 54.828 22.2675C54.0543 24.6125 53.2126 26.9644 52.5 29.3436Z" fill="#E7E7E7"/>
</g>
<defs>
<clipPath id="clip0">
<rect width="57" height="30" fill="white"/>
</clipPath>
</defs>
</svg>
