<svg width="18" height="18" viewBox="0 0 18 18" fill="none" xmlns="http://www.w3.org/2000/svg">
<path d="M12.9053 6.59475C12.6128 6.30188 12.1372 6.30188 11.8447 6.59475L8.625 9.81412L7.28025 8.46975C6.98775 8.17688 6.51225 8.17688 6.21975 8.46975C5.92688 8.76262 5.92688 9.23737 6.21975 9.53025L8.09475 11.4052C8.241 11.5519 8.433 11.625 8.625 11.625C8.817 11.625 9.009 11.5519 9.15525 11.4052L12.9053 7.65525C13.1981 7.36237 13.1981 6.88763 12.9053 6.59475Z" fill="#F29F05"/>
<path d="M17.25 8.25C16.836 8.25 16.5 8.586 16.5 9C16.5 13.1355 13.1355 16.5 9 16.5C4.8645 16.5 1.5 13.1355 1.5 9C1.5 4.8645 4.8645 1.5 9 1.5C11.0134 1.5 12.9034 2.28675 14.3224 3.7155C14.6138 4.00987 15.0889 4.01137 15.3829 3.71925C15.6769 3.4275 15.6784 2.95275 15.3866 2.65875C13.6841 0.94425 11.4157 0 9 0C4.03725 0 0 4.03725 0 9C0 13.9628 4.03725 18 9 18C13.9628 18 18 13.9628 18 9C18 8.586 17.664 8.25 17.25 8.25Z" fill="#F29F05"/>
</svg>
