<svg width="16" height="15" viewBox="0 0 16 15" fill="none" xmlns="http://www.w3.org/2000/svg">
<path d="M14.6439 1.26796C12.8903 -0.422975 10.0868 -0.422607 8.33368 1.26879L0.980777 8.5151C-0.348776 9.85627 -0.323366 12.0057 1.03753 13.3159C2.37604 14.6047 4.51373 14.6047 5.85224 13.3159L12.5104 6.7543C13.376 5.90128 13.376 4.51823 12.5104 3.66521C11.6448 2.81219 10.2414 2.81219 9.37586 3.66521L3.00716 9.94152C2.78503 10.1682 2.79141 10.5294 3.02141 10.7483C3.24579 10.9619 3.60148 10.9619 3.82585 10.7483L10.1945 4.47199C10.6168 4.07328 11.2872 4.08749 11.6917 4.50368C12.0841 4.90731 12.0841 5.54389 11.6917 5.94752L5.03358 12.5091C4.13412 13.3829 2.68614 13.3727 1.79947 12.4863C0.921749 11.6088 0.921749 10.1993 1.79947 9.32189L9.15237 2.07558C10.4621 0.78436 12.586 0.783992 13.8962 2.07471C15.2064 3.36542 15.2068 5.45851 13.8971 6.74972L6.54412 13.996C6.30126 14.201 6.27297 14.5612 6.48095 14.8005C6.68894 15.0399 7.05444 15.0678 7.2973 14.8628C7.31996 14.8437 7.34107 14.8229 7.36047 14.8005L14.7134 7.55423C16.4557 5.79941 16.4245 2.98493 14.6439 1.26796Z" fill="#022859"/>
</svg>
