<svg width="50" height="50" viewBox="0 0 50 50" fill="none" xmlns="http://www.w3.org/2000/svg">
<path d="M25 50C38.8071 50 50 38.8071 50 25C50 11.1929 38.8071 0 25 0C11.1929 0 0 11.1929 0 25C0 38.8071 11.1929 50 25 50Z" fill="white"/>
<path d="M33.4308 14.8533C33.0653 14.8533 32.7079 14.9617 32.4039 15.1648C32.1 15.3679 31.863 15.6566 31.7231 15.9943C31.5832 16.3321 31.5466 16.7037 31.618 17.0623C31.6893 17.4208 31.8653 17.7502 32.1238 18.0087C32.3823 18.2672 32.7117 18.4432 33.0702 18.5146C33.4288 18.5859 33.8005 18.5493 34.1382 18.4094C34.476 18.2695 34.7646 18.0326 34.9677 17.7286C35.1708 17.4246 35.2793 17.0673 35.2793 16.7017C35.281 16.4607 35.2353 16.2217 35.1447 15.9984C35.0541 15.7751 34.9204 15.5718 34.7512 15.4002C34.582 15.2285 34.3807 15.0919 34.1587 14.998C33.9367 14.9042 33.6984 14.855 33.4574 14.8533H33.4308Z" fill="#022859"/>
<path d="M25.266 17.2874C23.7275 17.2743 22.2196 17.7177 20.9331 18.5616C19.6466 19.4054 18.6392 20.6118 18.0383 22.0282C17.4374 23.4446 17.27 25.0073 17.5573 26.5188C17.8446 28.0303 18.5736 29.4227 19.6522 30.5199C20.7308 31.6171 22.1105 32.3698 23.6169 32.6829C25.1233 32.9959 26.6887 32.8553 28.1151 32.2787C29.5415 31.7021 30.765 30.7155 31.6307 29.4436C32.4964 28.1717 32.9655 26.6716 32.9787 25.1331V25.0002C32.958 22.961 32.1387 21.0113 30.6968 19.5694C29.2548 18.1274 27.3051 17.3082 25.266 17.2874ZM25.266 30.0401C24.2797 30.0427 23.3148 29.7528 22.4933 29.207C21.6718 28.6613 21.0305 27.8842 20.6507 26.974C20.2708 26.0638 20.1694 25.0614 20.3592 24.0935C20.5491 23.1257 21.0216 22.2359 21.7172 21.5367C22.4127 20.8374 23.3 20.3601 24.2668 20.1651C25.2336 19.9701 26.2365 20.0662 27.1487 20.4412C28.0609 20.8162 28.8414 21.4533 29.3916 22.2718C29.9417 23.0904 30.2367 24.0538 30.2394 25.0401C30.2289 26.3522 29.7002 27.6069 28.7687 28.531C27.8371 29.4551 26.5781 29.9736 25.266 29.9736V30.0401Z" fill="#022859"/>
<path d="M31.4096 9.06934H18.8963C16.3851 9.07284 13.9775 10.0711 12.2005 11.8455C10.4236 13.62 9.42197 16.0262 9.41494 18.5374V31.0507C9.40969 32.2958 9.64974 33.5298 10.1214 34.6821C10.593 35.8345 11.287 36.8826 12.1637 37.7668C13.0405 38.6509 14.0828 39.3537 15.2311 39.835C16.3794 40.3163 17.6113 40.5668 18.8564 40.572H31.4096C33.9209 40.565 36.327 39.5634 38.1015 37.7864C39.876 36.0094 40.8742 33.6019 40.8777 31.0906V18.5374C40.8777 16.0263 39.8802 13.6181 38.1046 11.8425C36.329 10.0669 33.9207 9.06934 31.4096 9.06934ZM37.9123 31.0507C37.914 31.9047 37.7476 32.7506 37.4224 33.5402C37.0972 34.3298 36.6197 35.0476 36.0171 35.6527C35.4145 36.2578 34.6986 36.7382 33.9104 37.0666C33.1221 37.395 32.2769 37.5649 31.4229 37.5667H18.8963C17.1682 37.5667 15.5108 36.8802 14.2888 35.6582C13.0669 34.4362 12.3804 32.7789 12.3804 31.0507V18.5374C12.3804 16.8128 13.0655 15.1588 14.285 13.9393C15.5044 12.7199 17.1584 12.0348 18.883 12.0348H31.4096C33.1342 12.0348 34.7882 12.7199 36.0077 13.9393C37.2272 15.1588 37.9123 16.8128 37.9123 18.5374V31.0507Z" fill="#022859"/>
</svg>
