<svg width="50" height="50" viewBox="0 0 50 50" fill="none" xmlns="http://www.w3.org/2000/svg">
<path fill-rule="evenodd" clip-rule="evenodd" d="M50 25C50 38.8071 38.8071 50 25 50C11.1929 50 0 38.8071 0 25C0 11.1929 11.1929 0 25 0C38.8071 0 50 11.1929 50 25ZM18.8963 9.06934H31.4096C33.9207 9.06934 36.329 10.0669 38.1046 11.8425C39.8802 13.6181 40.8777 16.0263 40.8777 18.5374V31.0906C40.8742 33.6019 39.876 36.0094 38.1015 37.7864C36.327 39.5634 33.9209 40.565 31.4096 40.572H18.8564C17.6113 40.5668 16.3794 40.3163 15.2311 39.835C14.0828 39.3537 13.0405 38.6509 12.1637 37.7668C11.287 36.8826 10.593 35.8345 10.1214 34.6821C9.64974 33.5298 9.40969 32.2958 9.41494 31.0507V18.5374C9.42197 16.0262 10.4236 13.62 12.2005 11.8455C13.9775 10.0711 16.3851 9.07284 18.8963 9.06934ZM37.4224 33.5402C37.7476 32.7506 37.914 31.9047 37.9123 31.0507V18.5374C37.9123 16.8128 37.2272 15.1588 36.0077 13.9393C34.7882 12.7199 33.1342 12.0348 31.4096 12.0348H18.883C17.1584 12.0348 15.5044 12.7199 14.285 13.9393C13.0655 15.1588 12.3804 16.8128 12.3804 18.5374V31.0507C12.3804 32.7789 13.0669 34.4362 14.2888 35.6582C15.5108 36.8802 17.1682 37.5667 18.8963 37.5667H31.4229C32.2769 37.5649 33.1221 37.395 33.9104 37.0666C34.6986 36.7382 35.4145 36.2578 36.0171 35.6527C36.6197 35.0476 37.0972 34.3298 37.4224 33.5402ZM33.4308 14.8534C33.0653 14.8534 32.7079 14.9618 32.4039 15.1649C32.1 15.368 31.863 15.6567 31.7231 15.9944C31.5832 16.3322 31.5466 16.7038 31.618 17.0624C31.6893 17.421 31.8653 17.7503 32.1238 18.0088C32.3823 18.2673 32.7117 18.4434 33.0702 18.5147C33.4288 18.586 33.8004 18.5494 34.1382 18.4095C34.476 18.2696 34.7646 18.0327 34.9677 17.7287C35.1708 17.4247 35.2793 17.0674 35.2793 16.7018C35.281 16.4608 35.2353 16.2218 35.1447 15.9985C35.0541 15.7752 34.9203 15.5719 34.7512 15.4003C34.582 15.2286 34.3807 15.092 34.1587 14.9982C33.9367 14.9043 33.6984 14.8551 33.4574 14.8534H33.4308ZM25.266 17.2875C23.7275 17.2744 22.2196 17.7178 20.9331 18.5617C19.6466 19.4055 18.6392 20.6119 18.0383 22.0283C17.4374 23.4447 17.27 25.0074 17.5573 26.519C17.8446 28.0305 18.5736 29.4228 19.6522 30.52C20.7308 31.6172 22.1105 32.3699 23.6169 32.683C25.1233 32.9961 26.6887 32.8554 28.1151 32.2788C29.5415 31.7022 30.765 30.7156 31.6307 29.4437C32.4964 28.1718 32.9655 26.6718 32.9787 25.1333V25.0003C32.958 22.9612 32.1387 21.0114 30.6968 19.5695C29.2548 18.1276 27.3051 17.3083 25.266 17.2875ZM25.266 30.0402C24.2797 30.0428 23.3148 29.7529 22.4933 29.2071C21.6718 28.6614 21.0305 27.8843 20.6507 26.9741C20.2708 26.0639 20.1694 25.0615 20.3592 24.0937C20.5491 23.1258 21.0216 22.236 21.7172 21.5368C22.4127 20.8375 23.3 20.3602 24.2668 20.1652C25.2336 19.9702 26.2365 20.0663 27.1487 20.4413C28.0609 20.8163 28.8414 21.4534 29.3916 22.272C29.9417 23.0906 30.2367 24.0539 30.2394 25.0402C30.2289 26.3523 29.7002 27.6071 28.7687 28.5311C27.8371 29.4552 26.5781 29.9737 25.266 29.9737V30.0402Z" fill="white"/>
</svg>
