<svg width="50" height="50" viewBox="0 0 50 50" fill="none" xmlns="http://www.w3.org/2000/svg">
<path d="M46.6464 12.7634C44.4108 8.83693 41.3784 5.72836 37.5484 3.43697C33.7178 1.14546 29.5359 0 24.9998 0C20.4642 0 16.281 1.14581 12.4511 3.43697C8.62076 5.72825 5.58847 8.83693 3.3529 12.7634C1.11767 16.6897 0 20.9772 0 25.6259C0 31.2101 1.58934 36.2315 4.76883 40.6914C7.94797 45.1517 12.0549 48.2381 17.0894 49.9509C17.6755 50.0624 18.1093 49.9839 18.3913 49.7176C18.6735 49.4509 18.8144 49.1169 18.8144 48.7169C18.8144 48.6502 18.8089 48.0498 18.798 46.9151C18.7869 45.7804 18.7816 44.7905 18.7816 43.9459L18.0329 44.0786C17.5555 44.1683 16.9533 44.2062 16.2262 44.1955C15.4995 44.1851 14.7451 44.107 13.964 43.9619C13.1825 43.818 12.4557 43.4843 11.7829 42.9616C11.1105 42.4388 10.6331 41.7545 10.3509 40.9098L10.0254 40.1419C9.80844 39.6307 9.46685 39.0628 9.0002 38.4404C8.53354 37.8173 8.06164 37.395 7.58427 37.1725L7.35636 37.0053C7.20449 36.8942 7.06357 36.7601 6.93325 36.6045C6.80305 36.449 6.70557 36.2933 6.64047 36.1374C6.57525 35.9814 6.62929 35.8534 6.80316 35.753C6.97703 35.6526 7.29125 35.6039 7.74719 35.6039L8.39798 35.7036C8.83203 35.7928 9.36891 36.0591 10.0093 36.5043C10.6494 36.9491 11.1756 37.5274 11.588 38.2389C12.0873 39.1512 12.689 39.8463 13.3946 40.3247C14.0997 40.8031 14.8105 41.0418 15.5265 41.0418C16.2425 41.0418 16.8609 40.9862 17.382 40.8755C17.9025 40.7643 18.3908 40.597 18.8467 40.3747C19.042 38.8837 19.5738 37.7382 20.4415 36.9375C19.2047 36.8043 18.0927 36.6036 17.105 36.3368C16.1179 36.0696 15.0978 35.636 14.0455 35.0348C12.9926 34.4345 12.1191 33.6889 11.4249 32.7995C10.7306 31.9097 10.1607 30.7414 9.7162 29.2958C9.27143 27.8497 9.04899 26.1814 9.04899 24.2907C9.04899 21.5985 9.90637 19.3076 11.6208 17.4166C10.8177 15.3926 10.8935 13.1237 11.8485 10.61C12.4778 10.4096 13.4111 10.56 14.648 11.0603C15.885 11.5609 16.7907 11.9897 17.366 12.3452C17.9413 12.7006 18.4023 13.0018 18.7496 13.246C20.7682 12.6679 22.8513 12.3787 24.9995 12.3787C27.1478 12.3787 29.2314 12.6679 31.2501 13.246L32.487 12.4456C33.3329 11.9115 34.3317 11.422 35.4812 10.9771C36.6314 10.5324 37.5109 10.4099 38.1188 10.6103C39.095 13.1241 39.182 15.393 38.3786 17.417C40.0929 19.308 40.9507 21.5995 40.9507 24.291C40.9507 26.1818 40.7274 27.8553 40.2833 29.3125C39.8387 30.7701 39.264 31.9371 38.5589 32.8163C37.853 33.6953 36.974 34.4349 35.9217 35.0352C34.8691 35.6359 33.8487 36.0695 32.8615 36.3367C31.874 36.6038 30.762 36.8046 29.5252 36.9381C30.6532 37.9388 31.2174 39.5183 31.2174 41.676V48.716C31.2174 49.1159 31.353 49.4498 31.6246 49.7166C31.8959 49.983 32.3242 50.0614 32.9102 49.9498C37.9454 48.2373 42.0524 45.1508 45.2314 40.6905C48.4101 36.2306 50 31.2091 50 25.625C49.9989 20.9769 48.8806 16.6897 46.6464 12.7634Z" fill="white"/>
</svg>
