<svg xmlns="http://www.w3.org/2000/svg" width="2000" height="2000" viewBox="0 0 2000 2000">
  <defs>
    <style>
      .cls-1 {
        fill: #f29f05;
        fill-rule: evenodd;
      }
    </style>
  </defs>
  <g id="Монтажная_область_1" data-name="Монтажная область 1">
    <g id="Синий_в_круге" data-name="Синий в круге">
      <g id="Группа_3" data-name="Группа 3">
        <path id="web" class="cls-1" d="M928.347,1387.55v-89.13H910.366v66.37q0,3.885-3.45,3.89H883.6q-3.45,0-3.45-3.89v-66.37H862.172v66.37q0,3.885-3.45,3.89H835.409q-3.45,0-3.45-3.89v-66.37H813.978v66.37a23.251,23.251,0,0,0,6.168,16.21,20.579,20.579,0,0,0,15.263,6.55h23.313a14.591,14.591,0,0,0,12.441-6.33q3.45,6.33,12.44,6.33h17.981q8.783,0,8.782-5.67v5.67h17.981Zm123.133,0v-18.87H988.96q-3.45,0-3.45-3.89v-43.62q0-3.66,3.45-3.66h41.09q3.645,0,3.65,3.66v8.66q0,3.66-3.65,3.66h-32.1v19.09h32.1a19.98,19.98,0,0,0,15.15-6.55,22.732,22.732,0,0,0,6.28-16.2v-8.66a22.34,22.34,0,0,0-6.28-16.09,19.84,19.84,0,0,0-15.15-6.66H988.96a20.178,20.178,0,0,0-15.263,6.66,22.571,22.571,0,0,0-6.168,16.09v43.62A23.251,23.251,0,0,0,973.7,1381a20.578,20.578,0,0,0,15.263,6.55h62.52Zm105.35-22.76q0,3.885-3.66,3.89h-41.08q-3.45,0-3.45-3.89v-43.62q0-3.66,3.45-3.66h41.08q3.66,0,3.66,3.66v43.62Zm17.78,0v-43.62a22.381,22.381,0,0,0-6.28-16.09,19.846,19.846,0,0,0-15.16-6.66h-35.75q-8.775,0-8.78,5.66v-68.16h-17.98v151.63h17.98v-5.67q0,5.67,8.78,5.67h35.75a20.022,20.022,0,0,0,15.16-6.55,22.781,22.781,0,0,0,6.28-16.21h0Z"/>
        <path id="N" class="cls-1" d="M1426.94,1154.66h-55.2L1159.82,870.2V1154.66h-54.93V764.133h54.93l211.92,283.887V764.133h55.2V1154.66Zm-102.06,55.75h71.63v-44.03h41.47V752.412H1360.7v44.027h-41.47V959.11l-153.75-206.7h-71.63v44.027h-41.46V1210.41h77.28v-44.03h41.19V1003.71Z"/>
        <path id="M" class="cls-1" d="M1020.38,1154.44h-55.2V832.525q0-10-8.886-10.006H850.469q-9.429,0-9.425,10.006V1154.44h-55.2V832.525q0-10-8.886-10.006H671.137q-9.428,0-9.424,10.006V1154.44h-54.93V822.519q0-24.015,16.425-41.168,16.421-17.435,38.5-17.44h110.4q13.19,0,26.927,12.866,13.189,12.864,14.54,24.586,1.344-12.008,14.271-24.586,14-12.865,26.927-12.866h110.4q23.154,0,39.044,17.154,16.155,16.872,16.16,41.454V1154.44Zm-107.711,55.75h77.279v-44.03h41.472V822.519a73.6,73.6,0,0,0-5.12-27.445,70.113,70.113,0,0,0-14.14-22.443,65.613,65.613,0,0,0-21.135-15.009,62.516,62.516,0,0,0-25.849-5.432h-110.4a42.035,42.035,0,0,0-16.7,3.86,62.729,62.729,0,0,0-17.5,11.864,38.748,38.748,0,0,0-3.77,4q-1.615,2-3.231,3.717a33.036,33.036,0,0,1-3.5-3.717,39.187,39.187,0,0,0-3.77-4q-17.235-15.72-34.2-15.724h-110.4q-25.849,0-46.314,21.156a65.613,65.613,0,0,0-16.425,26.874,58.49,58.49,0,0,0-13.194,6.861A72.839,72.839,0,0,0,574.2,817.087a63.912,63.912,0,0,0-14.944,22.157,71.927,71.927,0,0,0-4.981,27.016v343.93h77.279v-44.03h41.2V877.982h60.854V1210.19h77.01v-44.03h41.467V877.982h60.585V1210.19Z"/>
        <path id="_" data-name="&lt;" class="cls-1" d="M442.661,1112.44L373.728,990.649l68.933-122.361H378.037L309.105,990.649l68.932,121.791h64.624Z"/>
        <path id="_2" data-name="&lt;" class="cls-1" d="M1527.75,1112.44l68.93-121.791-68.93-122.361h64.63l68.93,122.361-68.93,121.791h-64.63Z"/>
      </g>
    </g>
  </g>
</svg>
