<svg width="17" height="11" viewBox="0 0 17 11" fill="none" xmlns="http://www.w3.org/2000/svg">
<path d="M14.0064 2.12766L8.5 6.75532L2.99359 2.12766C2.88832 2.03949 2.75055 1.99472 2.6106 2.0032C2.47064 2.01168 2.33995 2.07271 2.24729 2.17287C2.15462 2.27303 2.10757 2.40412 2.11648 2.53729C2.12539 2.67046 2.18954 2.79481 2.2948 2.88298L8.16458 7.79255C8.2618 7.87318 8.38641 7.9176 8.51537 7.9176C8.64434 7.9176 8.76894 7.87318 8.86616 7.79255L14.7052 2.89362C14.8119 2.80545 14.8775 2.68054 14.8875 2.54637C14.8974 2.4122 14.851 2.27976 14.7583 2.17819C14.6656 2.07662 14.5344 2.01423 14.3934 2.00476C14.2523 1.99528 14.1132 2.03949 14.0064 2.12766Z" fill="white"/>
<path d="M15.4152 0H1.58764C1.1668 0.000703128 0.763403 0.160085 0.465824 0.443232C0.168245 0.72638 0.000738966 1.11021 0 1.51064V9.48936C0.000738966 9.88979 0.168245 10.2736 0.465824 10.5568C0.763403 10.8399 1.1668 10.9993 1.58764 11H15.4152C15.8357 10.9993 16.2388 10.8398 16.536 10.5566C16.8331 10.2734 17 9.88955 17 9.48936V1.51064C17 1.11045 16.8331 0.726618 16.536 0.443395C16.2388 0.160172 15.8357 0.000704552 15.4152 0ZM15.9323 9.49468C15.9323 9.62824 15.8767 9.75637 15.7777 9.85106C15.6787 9.94575 15.5443 9.9993 15.404 10H1.58764C1.44679 10 1.3117 9.94676 1.21211 9.852C1.11251 9.75723 1.05656 9.6287 1.05656 9.49468V1.51596C1.05656 1.38194 1.11251 1.25341 1.21211 1.15864C1.3117 1.06388 1.44679 1.01064 1.58764 1.01064H15.4152C15.5526 1.01407 15.6833 1.0681 15.7797 1.16135C15.8762 1.25461 15.9309 1.37981 15.9323 1.51064V9.49468Z" fill="white"/>
</svg>
