<svg width="50" height="50" viewBox="0 0 50 50" fill="none" xmlns="http://www.w3.org/2000/svg">
<path d="M25 50C38.8071 50 50 38.8071 50 25C50 11.1929 38.8071 0 25 0C11.1929 0 0 11.1929 0 25C0 38.8071 11.1929 50 25 50Z" fill="white"/>
<path d="M10.2712 24.4078L34.3745 15.1135C35.4919 14.7097 36.4686 15.3881 36.107 17.0784L32.0033 36.4136C31.6982 37.7846 30.8835 38.118 29.7449 37.4724L23.4978 32.8639L20.4835 35.768C20.1501 36.1013 19.8684 36.3831 19.2228 36.3831L19.6665 30.021L31.2498 19.5575C31.7521 19.1138 31.1371 18.8532 30.4727 19.3063L16.1521 28.3166L9.98249 26.3939C8.64199 25.9689 8.61381 25.0534 10.2666 24.4078H10.2712Z" fill="#022859"/>
</svg>
