<svg width="60" height="60" viewBox="0 0 60 60" fill="none" xmlns="http://www.w3.org/2000/svg">
<path d="M30 60C46.5685 60 60 46.5685 60 30C60 13.4315 46.5685 0 30 0C13.4315 0 0 13.4315 0 30C0 46.5685 13.4315 60 30 60Z" fill="#039BE5"/>
<path d="M12.6365 29.3498L41.5615 18.1973C42.904 17.7123 44.0765 18.5248 43.6415 20.5548L43.644 20.5523L38.719 43.7548C38.354 45.3998 37.3765 45.7998 36.009 45.0248L28.509 39.4973L24.8915 42.9823C24.4915 43.3823 24.154 43.7198 23.379 43.7198L23.9115 36.0873L37.8115 23.5298C38.4165 22.9973 37.6765 22.6973 36.879 23.2273L19.7015 34.0423L12.2965 31.7323C10.689 31.2223 10.654 30.1248 12.6365 29.3498Z" fill="white"/>
</svg>
