<svg width="50" height="50" viewBox="0 0 50 50" fill="none" xmlns="http://www.w3.org/2000/svg">
<path fill-rule="evenodd" clip-rule="evenodd" d="M50 25C50 38.8071 38.8071 50 25 50C11.1929 50 0 38.8071 0 25C0 11.1929 11.1929 0 25 0C38.8071 0 50 11.1929 50 25ZM34.3745 15.1135L10.2712 24.4078H10.2666C8.61381 25.0534 8.64198 25.9689 9.98249 26.3939L16.1521 28.3166L30.4727 19.3063C31.1371 18.8532 31.7521 19.1138 31.2498 19.5575L19.6665 30.021L19.2228 36.3831C19.8684 36.3831 20.1501 36.1013 20.4835 35.768L23.4978 32.8639L29.7449 37.4724C30.8835 38.118 31.6982 37.7846 32.0033 36.4136L36.107 17.0784C36.4686 15.3881 35.4919 14.7097 34.3745 15.1135Z" fill="white"/>
</svg>
